<?xml version="1.0" encoding="UTF-8"?>
<svg id="Layer_1" data-name="Layer 1" xmlns="http://www.w3.org/2000/svg" viewBox="0 0 427.01 260.79">
  <defs>
    <style>
      .cls-1 {
        fill: #749769;
      }

      .cls-2 {
        fill: #3f4727;
      }
    </style>
  </defs>
  <path class="cls-2" d="M33.42,84.82c2.65,.35,4.97,.55,6.95,.63,1.98,.07,4.3,.1,6.95,.1,6.06,0,11.78-.92,17.18-2.71,5.39-1.81,10.1-4.44,14.11-7.88,4.01-3.45,7.17-7.63,9.5-12.57,2.33-4.94,3.5-10.54,3.5-16.8,0-6.75-1.08-12.48-3.24-17.21-2.15-4.74-5.19-8.57-9.08-11.53-3.91-2.96-8.57-5.1-14-6.42-5.43-1.32-11.42-1.98-17.96-1.98-3.83,0-6.7,.61-8.62,1.83-1.92,1.21-3.27,2.94-4.07,5.16-.81,2.23-1.2,4.89-1.2,7.99v61.38Zm7.63,8.97h-3.29c-1.5,0-2.95-.03-4.34-.09v30.98c0,3.91-.05,7.26-.15,10.05-.11,2.79-.3,5.08-.58,6.91l19.75-1.05v9.51H0v-7c4.03-.13,7.06-.86,9.08-2.19,2.03-1.32,3.45-3.14,4.29-5.43,.83-2.3,1.27-5.04,1.3-8.21,.03-3.17,.06-6.63,.06-10.4V24.34c0-2.92,.04-5.68,.15-8.31,.11-2.6,.3-5,.58-7.15L0,9.82V.32C7.51,.18,15.25,.09,23.18,.05c7.94-.03,16.12-.05,24.55-.05,20.75,0,36.53,3.48,47.32,10.44,11.55,7.6,17.34,18.71,17.34,33.33,0,2.99-.34,6.3-1,9.93-.66,3.62-1.99,7.35-4.01,11.22-2.03,3.86-4.8,7.56-8.3,11.07-3.52,3.51-7.94,6.57-13.27,9.19-5.33,2.61-11.69,4.7-19.06,6.27-7.38,1.56-15.94,2.34-25.7,2.34"/>
  <path class="cls-2" d="M185.32,97c-3.27,.15-6.67,.45-10.18,.89-3.52,.45-6.97,1.15-10.34,2.09-3.38,.95-6.57,2.14-9.56,3.6-2.99,1.46-5.61,3.2-7.83,5.23-2.23,2.02-3.97,4.36-5.23,7-1.25,2.64-1.8,5.63-1.66,8.99,.06,2.64,.56,4.96,1.5,6.94,.95,1.98,2.16,3.62,3.65,4.91,1.5,1.29,3.22,2.27,5.18,2.93,1.95,.66,4.04,.98,6.27,.98,2.85,0,5.53-.27,8.04-.83,2.51-.56,4.89-1.37,7.16-2.46,2.26-1.08,4.45-2.38,6.57-3.92,2.12-1.53,4.26-3.31,6.43-5.32v-31.03Zm-58.7-32.38c0-3.55,1.04-6.88,3.13-10.03,2.09-3.13,5.01-5.86,8.77-8.2,3.76-2.33,8.24-4.17,13.43-5.49,5.19-1.32,10.84-1.98,16.97-1.98,11.98,0,20.8,3.17,26.48,9.5,5.68,6.34,8.48,16.41,8.42,30.2l-.21,48.05c0,2.23-.05,4.47-.16,6.73-.11,2.26-.33,4.86-.68,7.78l15.14-.84v8.99h-30.6c-.41-2.44-.73-4.56-.94-6.38-.21-1.81-.39-3.72-.52-5.75-4.8,4.82-10.05,8.62-15.72,11.4-5.68,2.78-11.68,4.17-18.01,4.17-5.36,0-10.04-.64-14.04-1.93-4.01-1.3-7.34-3.08-9.98-5.38-2.65-2.29-4.63-5.01-5.96-8.1-1.33-3.09-1.99-6.41-1.99-9.97,0-4.38,.96-8.39,2.87-12.02,1.91-3.62,4.49-6.83,7.73-9.65,3.24-2.83,7.02-5.26,11.34-7.31,4.31-2.05,8.89-3.75,13.73-5.08,4.84-1.3,9.78-2.27,14.84-2.87,5.04-.58,9.97-.85,14.78-.79v-13.37c0-3.69-.22-7.28-.63-10.76-.42-3.48-1.35-6.65-2.76-9.51-1.44-2.85-3.66-5.11-6.69-6.79-3.03-1.67-6.54-2.5-10.5-2.5-2.3,0-4.5,.18-6.58,.56-2.09,.39-4.14,1.03-6.16,1.93-2.02,.91-3.85,2.09-5.48,3.56-1.65,1.46-2.98,3.2-4.03,5.22,1.05,1.18,1.75,2.49,2.14,3.92,.38,1.42,.57,2.8,.57,4.13,0,.83-.18,1.79-.52,2.87-.36,1.09-.89,2.09-1.62,3.03-.73,.95-1.66,1.71-2.82,2.31-1.15,.59-2.7,.88-4.64,.88-2.8,0-5-1.02-6.64-3.08-1.64-2.05-2.45-4.55-2.45-7.48"/>
  <path class="cls-1" d="M283.85,76.12c-2.5,.15-4.79,.16-6.84,.05-2.05-.09-4.19-.23-6.42-.37V34.64c0-3.83,.02-7.32,.06-10.45,.03-3.13,.46-5.81,1.3-8.04,.84-2.22,2.26-3.95,4.29-5.17,2.01-1.22,5.04-1.83,9.07-1.83,13.17,0,22.83,2.74,29,8.21,6.16,5.47,9.24,13.55,9.24,24.28,0,6.2-.97,11.44-2.93,15.72-1.93,4.29-4.68,7.78-8.19,10.5-3.52,2.71-7.7,4.71-12.54,6-4.85,1.3-10.18,2.03-16.04,2.25m133.43,163.76c-1.6-2.65-3.15-4.97-4.64-7-.67-.9-1.43-1.86-2.14-2.79h.06c-2.55-3.8-13.73-19.43-26.87-37.56l-3.42-4.83c18.1-21.58,26.31-30.92,28.28-32.72,2-1.76,4.08-3.26,6.28-4.48,2.19-1.2,4.75-2.24,7.68-3.08v-6.37h-35.1v8.78l14.72-.84c-1.46,1.39-10.43,12.17-26.74,32.09-19.84-27.29-69.66-97.91-71.18-99.02,8.15-1.67,14.81-4.04,20-7.1,5.19-3.06,9.28-6.54,12.27-10.44,3-3.91,5.06-8.03,6.16-12.39,1.1-4.35,1.67-8.62,1.67-12.79,0-5.92-1.09-11.21-3.29-15.88-2.19-4.66-5.65-8.63-10.35-11.9-4.69-3.28-10.72-5.81-18.06-7.57-7.36-1.79-16.18-2.78-26.47-2.98-8.3-.14-16.51-.16-24.67-.1-8.14,.06-16.26,.16-24.33,.31V10.73l15.45-.95c-.27,2.16-.48,4.56-.57,7.16-.1,2.62-.15,5.4-.15,8.32V117.78c0,3.75-.02,7.22-.06,10.39-.03,3.18-.47,5.92-1.3,8.22-.84,2.29-2.27,4.11-4.28,5.43-2.02,1.32-5.06,2.06-9.09,2.2v7h48.14v-9.3l-15.45,.85c.28-1.82,.47-4.13,.57-6.92,.1-2.79,.16-6.14,.16-10.05v-41.65c2.44,.2,4.87,.33,7.31,.36,2.45,.05,4.84-.01,7.2-.15,1.47,1.4,2.86,2.95,4.18,4.65,.77,.99,54.28,77.13,75.02,105.75l-1.53,1.87c-19.29,25-29.7,38.2-31.19,39.58-1.5,1.4-3.07,2.55-4.74,3.44-1.68,.91-3.6,1.65-5.75,2.21v6.37h35.94v-8.76l-16.4,.62c1.04-1.11,1.95-2.09,2.71-2.93,.76-.83,1.47-1.66,2.14-2.51,.66-.83,9.43-12.86,23.98-32.76,11.19,15.43,20.32,28.04,22.47,31.01,.78,1.2,1.37,2.29,1.61,3.21,.31,1.32,.16,2.42-.43,3.3-.58,.87-1.55,1.5-2.88,1.88-1.3,.38-2.84,.57-4.58,.57v6.37h41.37v-8.76l-9.73,.62"/>
  <path class="cls-2" d="M27.61,182.41c-.7,1.76-1.32,3.33-1.83,4.71-.52,1.38-.99,2.63-1.41,3.74h9.25l-4.25-12.99h-.09l-1.67,4.55Zm-5.51,14.52c-.12,.31-.23,.59-.33,.84-.1,.27-.2,.48-.29,.7-.1,.21-.2,.42-.29,.62-.09,.19-.21,.39-.33,.63l3.03-.16v1.76h-7.49l.06-1.32c.5,0,.95-.15,1.34-.39,.39-.25,.76-.58,1.1-1.02,.33-.44,.66-.97,.95-1.59,.29-.62,.6-1.29,.9-2.06l9.12-22.69h.91l7.71,23.03c.08,.26,.16,.56,.27,.92,.1,.35,.19,.71,.28,1.09,.08,.38,.15,.76,.21,1.12,.07,.37,.1,.7,.1,1.02v.3l2.62-.16v1.76h-8.86l.04-1.32c.49,0,.88-.06,1.2-.19,.32-.11,.57-.26,.75-.45,.19-.17,.31-.39,.39-.64,.07-.23,.12-.49,.12-.76,0-.3-.04-.62-.12-.94-.07-.31-.15-.61-.23-.87l-1.17-3.79-10.34,.23-1.63,4.33Z"/>
  <path class="cls-2" d="M61.55,188.96c.51,.06,.95,.09,1.33,.11,.37,0,.81,.01,1.32,.01,1.15,0,2.23-.18,3.28-.5,1.04-.35,1.96-.84,2.74-1.49,.79-.63,1.43-1.43,1.92-2.36,.49-.93,.77-1.98,.84-3.15,.04-1.28-.11-2.36-.47-3.26-.36-.88-.9-1.61-1.61-2.18-.7-.55-1.56-.96-2.57-1.21-1.01-.24-2.13-.37-3.36-.37-.64,0-1.15,.11-1.52,.32-.37,.21-.65,.52-.83,.92-.2,.39-.33,.86-.4,1.42-.07,.57-.11,1.22-.14,1.94l-.53,9.81Zm1.48,1.72h-.69c-.32,0-.61,0-.87-.04l-.32,5.88c-.04,.74-.07,1.37-.12,1.92-.04,.52-.09,.95-.15,1.3l3.7-.19-.08,1.79h-9.75l.1-1.32c.75-.03,1.33-.18,1.73-.44,.41-.25,.69-.59,.87-1.02,.18-.42,.29-.96,.33-1.55,.03-.6,.06-1.26,.1-1.97l.92-17.48c.03-.55,.07-1.08,.12-1.57,.06-.49,.12-.95,.18-1.34l-2.95,.17,.11-1.8c1.43-.03,2.88-.04,4.31-.06h4.55c3.9,0,6.81,.67,8.74,2.02,1.93,1.36,2.9,3.31,2.9,5.89,0,.69-.1,1.44-.26,2.18-.16,.76-.45,1.51-.85,2.24-.4,.73-.95,1.41-1.61,2.07-.68,.64-1.53,1.23-2.54,1.7-1.02,.5-2.22,.9-3.61,1.18-1.4,.28-3.01,.43-4.86,.43"/>
  <path class="cls-2" d="M92.02,183.27c-.09-.03-.15-.04-.23-.04h-.21c-.6,0-1.19,.27-1.76,.78-.58,.52-1.12,1.21-1.64,2.06-.52,.87-1,1.86-1.43,2.98-.43,1.12-.8,2.3-1.11,3.5-.32,1.22-.56,2.44-.74,3.66-.18,1.21-.26,2.33-.26,3.37v.52c0,.14,0,.28,.01,.41,0,.13,.02,.25,.03,.37,.01,.14,.02,.28,.04,.46h-3.35c-.02-.3-.04-.49-.04-.6,0-.35,0-.74,0-1.17,0-.44,.03-.98,.06-1.61,.04-.65,.1-1.46,.18-2.41,.09-.93,.21-2.14,.37-3.54,.12-1.05,.21-1.94,.3-2.66,.08-.73,.14-1.33,.2-1.82,.06-.49,.11-.88,.15-1.17,.04-.3,.07-.55,.09-.76,.02-.21,.04-.38,.04-.54,0-.16,0-.34,0-.56,0-.24,0-.46-.04-.67-.03-.22-.08-.41-.16-.57-.08-.17-.19-.32-.34-.41-.14-.11-.32-.16-.56-.16s-.47,.08-.72,.21c-.26,.14-.52,.37-.8,.67-.27,.3-.53,.72-.78,1.2-.25,.51-.46,1.1-.67,1.8l-1.13-.22c.1-.48,.27-1.05,.53-1.7,.26-.65,.61-1.28,1.04-1.88,.43-.57,.96-1.1,1.58-1.51,.6-.43,1.31-.63,2.11-.63,.55,0,1.02,.09,1.4,.28,.38,.18,.69,.45,.92,.79,.23,.34,.39,.74,.49,1.23,.1,.49,.15,1.04,.15,1.62,0,.71-.05,1.46-.15,2.27-.11,.83-.26,1.72-.44,2.63h.12c.6-1.75,1.2-3.21,1.82-4.33,.62-1.14,1.24-2.03,1.89-2.71,.64-.66,1.29-1.12,1.94-1.39,.65-.26,1.32-.39,1.97-.39,.41,0,.78,.06,1.12,.16,.35,.12,.65,.28,.9,.48,.25,.22,.46,.46,.6,.74,.14,.28,.22,.61,.22,.97,0,.23-.04,.48-.13,.71-.08,.23-.21,.45-.37,.62-.15,.19-.35,.34-.58,.44-.23,.11-.49,.18-.78,.18-.5,0-.93-.15-1.27-.44-.35-.28-.55-.7-.61-1.25"/>
  <path class="cls-2" d="M106.09,182.04c-.93,0-1.74,.25-2.41,.74-.68,.49-1.25,1.15-1.7,1.95-.46,.82-.81,1.75-1.05,2.78-.26,1.05-.42,2.1-.5,3.18,1.06-.13,2.12-.37,3.13-.67,1.02-.3,1.93-.67,2.74-1.15,.8-.46,1.45-1.01,1.94-1.65,.5-.62,.75-1.32,.75-2.1,0-.42-.06-.83-.18-1.22-.12-.37-.29-.68-.54-.97-.23-.28-.54-.49-.9-.64-.37-.16-.79-.25-1.28-.25m6.21,3.29c0,.75-.17,1.42-.53,2.01-.36,.62-.83,1.15-1.44,1.62-.6,.48-1.31,.89-2.11,1.23-.79,.37-1.63,.68-2.51,.95-.89,.26-1.79,.47-2.7,.63-.92,.17-1.79,.29-2.64,.38,.02,2.54,.39,4.43,1.13,5.7,.73,1.26,1.9,1.89,3.49,1.89,.6,0,1.19-.09,1.78-.27,.59-.21,1.17-.48,1.76-.88,.56-.4,1.11-.89,1.64-1.51,.53-.6,1.01-1.33,1.46-2.18l1.32,.74c-1.13,2.12-2.39,3.68-3.8,4.67-1.4,1-3.02,1.49-4.85,1.49-1.29,0-2.41-.2-3.34-.64-.94-.41-1.71-1.02-2.33-1.77-.62-.77-1.07-1.68-1.37-2.77-.3-1.06-.45-2.26-.45-3.56,0-1.04,.09-2.08,.26-3.11,.18-1.02,.46-1.98,.81-2.89,.36-.92,.81-1.77,1.36-2.55,.54-.79,1.17-1.46,1.91-2.03,.72-.57,1.55-1,2.46-1.33,.92-.32,1.93-.49,3.04-.49,.71,0,1.41,.09,2.08,.24,.68,.17,1.29,.45,1.81,.8,.53,.37,.96,.83,1.27,1.43,.32,.59,.48,1.33,.48,2.2"/>
  <path class="cls-2" d="M118.76,198.43c.11,.27,.27,.55,.5,.77,.22,.23,.49,.43,.79,.58,.31,.15,.64,.3,1,.38,.35,.07,.72,.12,1.09,.12,1.46,0,2.55-.32,3.27-.99,.73-.67,1.09-1.62,1.09-2.86,0-.68-.23-1.3-.71-1.84-.49-.54-1.1-1.06-1.82-1.55-.73-.5-1.51-.98-2.36-1.46-.85-.47-1.62-.97-2.35-1.51-.74-.52-1.34-1.11-1.83-1.75-.47-.63-.71-1.37-.71-2.19,0-.74,.17-1.43,.5-2.1,.33-.65,.8-1.24,1.42-1.74,.62-.51,1.34-.9,2.2-1.18,.86-.29,1.8-.44,2.87-.44,.76,0,1.51,.1,2.21,.29,.72,.2,1.36,.46,1.92,.8,.57,.35,1,.76,1.35,1.25,.34,.49,.5,1.03,.5,1.63s-.16,1.04-.49,1.39c-.32,.33-.73,.48-1.21,.48s-.88-.15-1.18-.48c-.29-.34-.44-.71-.44-1.13,0-.2,.03-.42,.08-.63,.05-.21,.15-.43,.29-.65-.14-.45-.47-.82-1-1.13-.52-.31-1.25-.47-2.14-.47-.46,0-.9,.08-1.34,.23-.44,.15-.84,.38-1.19,.64-.36,.3-.64,.63-.86,1.02-.21,.4-.33,.83-.33,1.31s.15,.93,.43,1.34c.28,.42,.65,.81,1.12,1.17,.47,.38,1,.74,1.6,1.07,.6,.36,1.21,.71,1.82,1.08,.62,.37,1.23,.76,1.83,1.17,.6,.41,1.13,.86,1.6,1.35,.47,.46,.84,.98,1.13,1.57,.29,.57,.42,1.22,.42,1.93,0,.85-.18,1.65-.55,2.35-.36,.72-.89,1.33-1.56,1.86-.67,.53-1.47,.94-2.41,1.24-.93,.3-1.96,.44-3.08,.44-.81,0-1.61-.09-2.39-.29-.79-.18-1.48-.46-2.09-.83-.6-.36-1.09-.81-1.46-1.37-.36-.52-.55-1.14-.55-1.84,0-.59,.17-1.08,.51-1.45,.34-.35,.76-.55,1.25-.55,.54,0,.95,.19,1.23,.54,.27,.35,.41,.74,.41,1.18,0,.2-.02,.41-.07,.61-.04,.2-.15,.41-.29,.64"/>
  <path class="cls-2" d="M149.1,185.39c0,.63-.15,1.12-.47,1.47-.31,.35-.76,.52-1.34,.52-.3,0-.55-.05-.76-.17-.2-.11-.37-.25-.5-.42-.13-.17-.22-.35-.28-.53-.06-.19-.09-.36-.09-.52,0-.23,.03-.49,.09-.76,.06-.27,.2-.53,.43-.76-.14-.76-.52-1.3-1.12-1.65-.61-.33-1.3-.51-2.08-.51s-1.47,.15-2.07,.43c-.61,.3-1.13,.69-1.59,1.18-.44,.51-.82,1.09-1.13,1.75-.3,.64-.55,1.35-.73,2.08-.19,.72-.32,1.48-.41,2.27-.09,.76-.13,1.5-.13,2.2,0,1.43,.13,2.63,.37,3.61,.24,.99,.59,1.81,1.03,2.41,.45,.63,.97,1.08,1.57,1.36,.6,.27,1.27,.42,1.98,.42,.52,0,1.07-.08,1.64-.24,.56-.16,1.12-.44,1.66-.83,.54-.39,1.05-.92,1.55-1.57,.49-.64,.93-1.45,1.33-2.42l1.42,.67c-.51,1.17-1.08,2.16-1.72,2.97-.63,.81-1.3,1.47-2.02,1.97-.71,.53-1.45,.89-2.22,1.12-.77,.22-1.55,.34-2.34,.34-1.19,0-2.26-.17-3.22-.53-.96-.36-1.78-.89-2.46-1.64-.67-.71-1.2-1.64-1.57-2.77-.36-1.09-.55-2.41-.55-3.93,0-.88,.08-1.79,.24-2.74,.16-.94,.42-1.87,.78-2.78,.34-.91,.77-1.77,1.3-2.59,.52-.81,1.14-1.52,1.86-2.13,.71-.61,1.54-1.1,2.44-1.46,.92-.35,1.94-.54,3.06-.54,.86,0,1.67,.13,2.41,.36,.74,.26,1.38,.59,1.92,1.01,.54,.43,.97,.92,1.27,1.5,.3,.57,.46,1.2,.46,1.87"/>
  <path class="cls-2" d="M165.7,183.27c-.08-.03-.15-.04-.22-.04h-.22c-.59,0-1.19,.27-1.76,.78-.57,.52-1.12,1.21-1.64,2.06-.53,.87-1,1.86-1.43,2.98-.44,1.12-.81,2.3-1.12,3.5-.32,1.22-.55,2.44-.74,3.66-.17,1.21-.26,2.33-.26,3.37v.52c0,.14,0,.28,0,.41,0,.13,.01,.25,.03,.37,.02,.14,.03,.28,.04,.46h-3.36c-.02-.3-.04-.49-.04-.6,0-.35,0-.74,0-1.17,0-.44,.03-.98,.07-1.61,.04-.65,.1-1.46,.19-2.41,.08-.93,.2-2.14,.36-3.54,.12-1.05,.22-1.94,.3-2.66,.08-.73,.15-1.33,.21-1.82,.06-.49,.11-.88,.15-1.17,.04-.3,.07-.55,.09-.76,.01-.21,.03-.38,.04-.54,0-.16,0-.34,0-.56,0-.24,0-.46-.03-.67-.03-.22-.08-.41-.16-.57-.09-.17-.19-.32-.34-.41-.13-.11-.32-.16-.57-.16-.23,0-.46,.08-.72,.21-.26,.14-.52,.37-.79,.67-.27,.3-.54,.72-.78,1.2-.25,.51-.47,1.1-.67,1.8l-1.13-.22c.09-.48,.27-1.05,.52-1.7,.26-.65,.61-1.28,1.04-1.88,.44-.57,.96-1.1,1.58-1.51,.61-.43,1.32-.63,2.12-.63,.56,0,1.02,.09,1.4,.28,.38,.18,.69,.45,.92,.79,.23,.34,.4,.74,.5,1.23,.09,.49,.14,1.04,.14,1.62,0,.71-.05,1.46-.15,2.27-.1,.83-.26,1.72-.44,2.63h.12c.6-1.75,1.2-3.21,1.81-4.33,.62-1.14,1.25-2.03,1.89-2.71,.64-.66,1.29-1.12,1.95-1.39,.65-.26,1.31-.39,1.96-.39,.41,0,.79,.06,1.14,.16,.34,.12,.64,.28,.89,.48,.26,.22,.46,.46,.6,.74,.14,.28,.22,.61,.22,.97,0,.23-.04,.48-.13,.71-.09,.23-.22,.45-.37,.62-.16,.19-.36,.34-.58,.44-.23,.11-.49,.18-.78,.18-.5,0-.93-.15-1.27-.44-.34-.28-.54-.7-.61-1.25"/>
  <path class="cls-2" d="M179.16,174.24c0,.34-.06,.65-.18,.92-.11,.28-.27,.52-.47,.71-.19,.21-.43,.37-.69,.47-.25,.11-.54,.17-.82,.17s-.58-.06-.84-.17c-.25-.1-.48-.26-.67-.47-.21-.19-.35-.43-.47-.71-.11-.27-.17-.58-.17-.92s.06-.65,.18-.94c.12-.28,.28-.51,.47-.73,.22-.2,.45-.37,.71-.48,.26-.1,.54-.15,.82-.15,.63,0,1.15,.2,1.54,.62,.39,.41,.59,.99,.59,1.69m-1.04,10.62c0,.82-.09,1.74-.24,2.79-.16,1.06-.34,2.16-.54,3.31-.2,1.17-.37,2.36-.53,3.57-.16,1.21-.23,2.38-.23,3.51,0,.56,.1,.99,.29,1.26,.2,.29,.52,.44,.97,.44,.22,0,.46-.07,.72-.2,.25-.13,.52-.35,.78-.67,.26-.31,.52-.71,.77-1.22,.25-.5,.47-1.1,.67-1.81l1.14,.24c-.11,.56-.31,1.18-.55,1.84-.27,.68-.6,1.29-1.01,1.86-.4,.57-.9,1.05-1.46,1.43-.58,.39-1.24,.57-1.99,.57-2.43,0-3.65-1.27-3.65-3.79,0-1.18,.08-2.33,.24-3.44,.17-1.12,.35-2.22,.54-3.33,.2-1.09,.38-2.19,.55-3.3,.16-1.11,.24-2.24,.24-3.38,0-.18,0-.37-.04-.57-.04-.21-.1-.41-.18-.6-.07-.18-.19-.34-.33-.46-.15-.13-.34-.18-.57-.18s-.47,.05-.73,.19c-.25,.14-.51,.37-.79,.67-.27,.31-.52,.71-.77,1.21-.26,.5-.49,1.1-.68,1.8l-1.12-.23c.1-.47,.26-1.05,.5-1.7,.24-.64,.56-1.28,.97-1.88,.41-.58,.91-1.09,1.51-1.51,.59-.43,1.3-.63,2.12-.63,.56,0,1.06,.11,1.49,.31,.43,.2,.79,.49,1.06,.87,.29,.37,.49,.8,.63,1.32,.14,.5,.22,1.08,.22,1.71"/>
  <path class="cls-2" d="M190.42,196.07c-.12,.61-.2,1.23-.27,1.84-.06,.63-.12,1.3-.18,2.01,.41,.15,.82,.26,1.21,.35,.38,.09,.8,.12,1.26,.12,.94,0,1.8-.15,2.55-.48,.75-.32,1.43-.76,2-1.32,.57-.55,1.06-1.21,1.47-1.94,.4-.73,.73-1.51,.99-2.34,.26-.82,.45-1.67,.56-2.55,.12-.87,.18-1.72,.18-2.53,0-.92-.04-1.79-.13-2.61-.09-.8-.23-1.51-.44-2.11-.22-.62-.51-1.09-.87-1.45-.37-.33-.83-.52-1.39-.52-.49,0-.97,.19-1.45,.56-.5,.35-.97,.85-1.43,1.49-.46,.64-.89,1.4-1.31,2.25-.41,.87-.8,1.81-1.14,2.81-.35,.99-.66,2.04-.94,3.13-.28,1.09-.5,2.19-.66,3.28m-.89,10.66c-.04,.55-.08,1.14-.11,1.76-.04,.6-.11,1.14-.23,1.59l2.55-.12v1.66h-7.64v-1.2c.57,0,1.01-.15,1.31-.45,.31-.29,.54-.69,.68-1.19,.15-.51,.24-1.11,.3-1.79,.04-.69,.1-1.42,.17-2.23,.11-1.56,.23-3.06,.38-4.56,.12-1.48,.26-2.9,.39-4.27,.12-1.37,.25-2.64,.36-3.85,.12-1.19,.22-2.27,.3-3.23,.1-.97,.16-1.79,.22-2.48,.05-.68,.08-1.2,.08-1.54,0-.27,0-.53-.01-.79-.01-.26-.06-.48-.14-.68-.06-.19-.18-.36-.32-.48-.14-.12-.35-.18-.61-.18-.23,0-.46,.05-.73,.2-.26,.13-.52,.36-.77,.67-.26,.31-.51,.71-.75,1.21-.24,.5-.46,1.1-.67,1.8l-1.18-.22c.09-.48,.27-1.05,.53-1.7,.25-.65,.6-1.28,1.04-1.88,.43-.57,.96-1.1,1.56-1.51,.61-.43,1.33-.63,2.13-.63,.6,0,1.1,.13,1.51,.36,.4,.23,.71,.54,.94,.92,.24,.39,.4,.83,.49,1.35,.09,.51,.14,1.05,.14,1.6,0,.84-.06,1.65-.19,2.47-.14,.82-.26,1.53-.37,2.15h.13c.56-1.85,1.13-3.35,1.72-4.51,.58-1.15,1.19-2.04,1.81-2.68,.61-.64,1.22-1.06,1.84-1.29,.62-.23,1.22-.36,1.81-.36,.92,0,1.72,.21,2.42,.63,.69,.42,1.27,.99,1.71,1.71,.45,.7,.78,1.54,1.01,2.48,.22,.96,.32,1.95,.32,3.03,0,1.96-.25,3.77-.76,5.39-.51,1.63-1.27,3.03-2.27,4.2-1.01,1.18-2.25,2.09-3.75,2.73-1.49,.65-3.21,.97-5.16,.97-.66,0-1.29-.04-1.9-.11l-.32,5.06Z"/>
  <path class="cls-2" d="M206.5,181.11c1.66,0,2.98-.5,3.96-1.48,.99-.98,1.74-2.39,2.26-4.22h1.55l-.73,5.7h6.43l-.12,1.49-6.48,.12c-.12,1.12-.24,2.29-.38,3.51-.14,1.2-.27,2.4-.37,3.59-.11,1.16-.21,2.31-.28,3.41-.08,1.09-.12,2.08-.12,2.98,0,.38,.01,.8,.05,1.22,.03,.42,.12,.8,.24,1.13,.12,.35,.31,.61,.56,.83,.24,.22,.6,.34,1.04,.34,.21,0,.45-.03,.71-.09,.28-.05,.58-.18,.92-.36,.33-.19,.69-.46,1.06-.84,.37-.38,.74-.9,1.12-1.54l1.04,.69c-.39,.7-.8,1.32-1.21,1.83-.42,.53-.87,.95-1.33,1.3-.46,.36-.97,.64-1.51,.8-.54,.19-1.14,.27-1.78,.27-.79,0-1.45-.14-1.99-.38-.54-.26-.97-.61-1.29-1.05-.32-.43-.56-.95-.7-1.52-.15-.59-.22-1.21-.22-1.84,0-.76,.03-1.64,.07-2.7,.05-1.03,.12-2.15,.2-3.39,.07-1.21,.2-2.53,.33-3.89,.12-1.38,.28-2.8,.44-4.26l-3.59,.03,.12-1.67Z"/>
  <path class="cls-2" d="M230.06,174.24c0,.34-.07,.65-.19,.92-.12,.28-.28,.52-.46,.71-.2,.21-.43,.37-.69,.47-.27,.11-.54,.17-.83,.17s-.59-.06-.84-.17c-.26-.1-.48-.26-.68-.47-.2-.19-.35-.43-.46-.71-.11-.27-.17-.58-.17-.92s.06-.65,.17-.94c.13-.28,.29-.51,.49-.73,.21-.2,.43-.37,.7-.48,.27-.1,.54-.15,.84-.15,.62,0,1.13,.2,1.53,.62,.41,.41,.6,.99,.6,1.69m-1.05,10.62c0,.82-.08,1.74-.24,2.79-.16,1.06-.33,2.16-.53,3.31-.19,1.17-.37,2.36-.53,3.57-.15,1.21-.24,2.38-.24,3.51,0,.56,.1,.99,.3,1.26,.19,.29,.51,.44,.96,.44,.22,0,.46-.07,.73-.2,.24-.13,.5-.35,.78-.67,.25-.31,.5-.71,.76-1.22,.25-.5,.47-1.1,.68-1.81l1.13,.24c-.11,.56-.29,1.18-.55,1.84-.25,.68-.6,1.29-1.01,1.86-.4,.57-.89,1.05-1.46,1.43-.58,.39-1.24,.57-1.97,.57-2.45,0-3.66-1.27-3.66-3.79,0-1.18,.08-2.33,.25-3.44,.17-1.12,.35-2.22,.55-3.33,.19-1.09,.37-2.19,.53-3.3,.19-1.11,.26-2.24,.26-3.38,0-.18-.02-.37-.04-.57-.03-.21-.09-.41-.17-.6-.08-.18-.19-.34-.34-.46-.15-.13-.33-.18-.56-.18s-.47,.05-.73,.19c-.26,.14-.52,.37-.79,.67-.27,.31-.53,.71-.79,1.21-.24,.5-.47,1.1-.68,1.8l-1.12-.23c.09-.47,.26-1.05,.49-1.7,.23-.64,.56-1.28,.98-1.88,.42-.58,.92-1.09,1.51-1.51,.58-.43,1.29-.63,2.11-.63,.57,0,1.06,.11,1.49,.31,.43,.2,.78,.49,1.07,.87,.28,.37,.48,.8,.62,1.32,.13,.5,.21,1.08,.21,1.71"/>
  <path class="cls-2" d="M248.99,190.31c0-.62-.03-1.24-.09-1.9-.06-.64-.16-1.28-.31-1.88-.13-.59-.32-1.16-.55-1.69-.24-.52-.54-.99-.89-1.39-.35-.41-.78-.72-1.27-.96-.47-.22-1.04-.35-1.7-.35-.9,0-1.71,.26-2.44,.76-.7,.52-1.31,1.21-1.79,2.08-.49,.89-.87,1.9-1.13,3.07-.24,1.17-.37,2.42-.37,3.75,0,.62,.03,1.24,.09,1.9,.06,.66,.16,1.31,.3,1.94,.14,.62,.34,1.2,.56,1.76,.23,.56,.52,1.04,.87,1.46,.35,.41,.76,.75,1.22,1,.47,.23,1,.36,1.62,.36,.69,0,1.31-.14,1.88-.44,.55-.28,1.06-.68,1.48-1.16,.43-.47,.81-1.04,1.13-1.68,.31-.63,.57-1.3,.78-2.01,.2-.69,.35-1.42,.46-2.13,.09-.72,.15-1.56,.16-2.51m-6.35,11.47c-1.33,0-2.49-.24-3.46-.71-.97-.47-1.77-1.11-2.41-1.94-.64-.8-1.12-1.77-1.43-2.88-.29-1.1-.45-2.28-.45-3.53,0-1.63,.21-3.18,.69-4.64,.46-1.47,1.11-2.75,1.96-3.85,.85-1.09,1.91-1.96,3.15-2.61,1.22-.64,2.62-.97,4.18-.97,1.09,0,2.11,.21,3.04,.6,.94,.4,1.74,.97,2.44,1.71,.7,.76,1.22,1.68,1.61,2.79,.38,1.09,.59,2.36,.59,3.77,0,1.64-.22,3.19-.66,4.67-.45,1.48-1.1,2.78-1.94,3.92-.84,1.11-1.88,2.01-3.11,2.68-1.23,.67-2.63,1-4.2,1"/>
  <path class="cls-2" d="M261.64,199.17c0,.41,.01,.79,.01,1.13,.01,.34,.04,.68,.07,1.02h-3.41c-.01-.28-.02-.47-.02-.58,0-.37,0-.76,.02-1.17,.04-.41,.08-.92,.13-1.55,.06-.62,.15-1.4,.25-2.31,.1-.92,.23-2.09,.38-3.51,.13-1.06,.23-1.94,.31-2.68,.09-.75,.16-1.36,.22-1.87,.04-.5,.09-.9,.13-1.22,.04-.31,.07-.58,.08-.79,0-.22,.02-.41,.03-.58,0-.15,0-.34,0-.53,0-.24,0-.47-.04-.69-.03-.22-.08-.43-.16-.58-.08-.16-.19-.31-.32-.4-.14-.11-.32-.15-.57-.15-.22,0-.47,.06-.71,.2-.27,.14-.53,.37-.79,.67-.27,.31-.53,.71-.78,1.22-.24,.5-.47,1.1-.68,1.8l-1.13-.24c.11-.46,.27-1.03,.54-1.67,.25-.66,.59-1.29,1.04-1.89,.43-.59,.96-1.1,1.57-1.5,.61-.43,1.32-.63,2.13-.63,.59,0,1.08,.12,1.47,.35,.41,.23,.71,.54,.92,.93,.23,.38,.39,.83,.48,1.33,.09,.52,.13,1.05,.13,1.61,0,.45-.02,.88-.06,1.35-.06,.45-.11,.91-.16,1.34-.05,.43-.13,.85-.21,1.23-.07,.4-.14,.76-.2,1.07h.13c.67-1.84,1.35-3.36,2.03-4.54,.67-1.19,1.34-2.13,2.01-2.83,.66-.68,1.32-1.16,1.98-1.44,.65-.26,1.3-.41,1.96-.41,.8,0,1.48,.15,2.04,.43,.57,.29,1.03,.68,1.37,1.16,.34,.47,.6,1.03,.74,1.65,.16,.65,.25,1.32,.25,2.02,0,1.12-.07,2.26-.19,3.43-.13,1.18-.26,2.31-.42,3.36-.16,1.08-.29,2.06-.42,2.96-.12,.88-.19,1.63-.19,2.2,0,.26,0,.5,.03,.72,.02,.23,.06,.42,.15,.59,.06,.18,.18,.31,.32,.42,.15,.1,.34,.15,.59,.15,.21,0,.43-.07,.7-.2,.26-.15,.53-.36,.79-.67,.26-.32,.51-.71,.77-1.21,.26-.52,.48-1.12,.66-1.83l1.15,.24c-.08,.47-.26,1.03-.53,1.69-.26,.65-.59,1.27-1.02,1.86-.44,.6-.96,1.1-1.58,1.52-.62,.42-1.31,.62-2.12,.62-.64,0-1.18-.08-1.6-.26-.43-.17-.75-.42-1.01-.76-.25-.33-.42-.73-.52-1.22-.1-.47-.14-1.04-.14-1.67,0-.75,.05-1.64,.19-2.67,.14-1.02,.27-2.12,.43-3.25,.15-1.15,.28-2.34,.41-3.52,.13-1.19,.21-2.34,.21-3.41,0-.23-.03-.49-.09-.77-.04-.29-.15-.56-.28-.81-.14-.24-.33-.47-.58-.63-.23-.18-.56-.25-.96-.25-.62,0-1.24,.25-1.88,.76-.64,.51-1.25,1.18-1.84,2.03-.61,.83-1.14,1.84-1.65,2.95-.52,1.11-.97,2.3-1.35,3.54-.39,1.23-.68,2.47-.91,3.73-.22,1.28-.33,2.49-.33,3.61"/>
  <path class="cls-2" d="M86.34,258.88c.29,.21,.7,.31,1.2,.31,.64,0,1.17-.22,1.59-.69,.42-.45,.77-1.09,1.04-1.93,.27-.84,.49-1.84,.65-3,.17-1.17,.31-2.47,.43-3.89,.11-1.44,.23-2.97,.33-4.61,.1-1.65,.24-3.37,.39-5.14,.13-1.46,.25-2.88,.34-4.34,.09-1.46,.21-2.87,.37-4.27l-3.54,.04,.2-1.74h3.55c.21-1.48,.5-2.87,.86-4.14,.36-1.29,.86-2.39,1.48-3.34,.64-.94,1.43-1.69,2.38-2.21,.96-.55,2.12-.82,3.51-.82,.93,0,1.65,.19,2.16,.55,.5,.37,.76,.89,.76,1.54,0,.16-.02,.34-.08,.53-.05,.18-.14,.37-.27,.52-.13,.18-.3,.29-.51,.39-.2,.12-.45,.17-.75,.17-.51,0-.89-.17-1.18-.52-.28-.33-.42-.78-.42-1.33v-.16c-.07-.06-.18-.09-.34-.13-.17-.03-.34-.05-.53-.05-.71,0-1.3,.23-1.77,.67-.46,.44-.85,1.05-1.14,1.83-.3,.8-.53,1.75-.7,2.84-.16,1.12-.29,2.33-.38,3.64h5.72l-.11,1.58-5.73,.07c-.09,1.4-.18,2.85-.25,4.38-.06,1.52-.17,3.07-.32,4.65-.14,1.62-.28,3.27-.4,4.92-.13,1.63-.3,3.21-.52,4.73-.21,1.51-.5,2.93-.87,4.25-.36,1.34-.85,2.48-1.47,3.45-.62,.98-1.4,1.73-2.32,2.3-.94,.56-2.08,.84-3.44,.84-2.11,0-3.16-.69-3.16-2.09,0-.16,.03-.34,.08-.52,.06-.21,.15-.38,.28-.54,.13-.17,.29-.32,.5-.44,.21-.11,.47-.17,.77-.17,.5,0,.89,.18,1.17,.51,.28,.35,.41,.79,.41,1.35"/>
  <path class="cls-2" d="M116.49,238.82c0-.63-.03-1.26-.09-1.9-.07-.64-.16-1.27-.31-1.87-.15-.6-.34-1.17-.58-1.7-.24-.53-.53-1-.89-1.39-.35-.4-.78-.72-1.26-.95-.48-.23-1.05-.35-1.7-.35-.9,0-1.71,.26-2.44,.76-.71,.52-1.31,1.21-1.8,2.09-.49,.87-.85,1.89-1.11,3.06-.26,1.17-.38,2.42-.38,3.75,0,.62,.03,1.25,.09,1.93,.06,.64,.15,1.29,.3,1.92,.15,.63,.34,1.21,.56,1.77,.24,.55,.53,1.04,.87,1.46,.35,.43,.76,.76,1.22,1,.47,.25,1,.37,1.61,.37,.7,0,1.32-.14,1.89-.45,.55-.27,1.06-.65,1.49-1.14,.44-.49,.81-1.04,1.12-1.69,.31-.62,.58-1.3,.78-2.01,.2-.69,.36-1.41,.46-2.14,.1-.72,.15-1.56,.17-2.5m-6.36,11.46c-1.33,0-2.48-.23-3.46-.7-.97-.48-1.78-1.12-2.41-1.93-.64-.82-1.11-1.79-1.42-2.89-.31-1.1-.46-2.28-.46-3.53,0-1.63,.22-3.18,.69-4.64,.46-1.47,1.12-2.76,1.97-3.85,.86-1.09,1.9-1.96,3.14-2.61,1.24-.64,2.63-.95,4.18-.95,1.1,0,2.12,.2,3.04,.58,.94,.41,1.75,.98,2.44,1.73,.69,.75,1.23,1.68,1.61,2.79,.39,1.08,.59,2.34,.59,3.76,0,1.64-.21,3.2-.66,4.69-.44,1.46-1.08,2.76-1.94,3.89-.85,1.12-1.88,2.03-3.12,2.68-1.23,.67-2.62,.99-4.2,.99"/>
  <path class="cls-2" d="M136.67,231.77c-.08-.01-.16-.05-.22-.05h-.21c-.61,0-1.2,.27-1.76,.79-.58,.53-1.12,1.2-1.65,2.08-.51,.85-.99,1.84-1.43,2.98-.44,1.13-.8,2.28-1.12,3.5-.3,1.22-.55,2.43-.73,3.65-.18,1.21-.26,2.34-.26,3.39v.51c0,.14,0,.27,0,.4,0,.13,.02,.24,.03,.38,.01,.13,.02,.27,.04,.45h-3.36c-.02-.3-.04-.49-.04-.6,0-.35,0-.73,0-1.16,0-.43,.03-.97,.07-1.6,.04-.66,.1-1.44,.19-2.41,.09-.94,.21-2.13,.37-3.55,.12-1.04,.22-1.94,.29-2.66,.09-.73,.15-1.33,.21-1.82,.06-.48,.11-.88,.15-1.17,.04-.3,.07-.55,.09-.75,.01-.2,.03-.39,.04-.55,0-.15,0-.34,0-.54,0-.24-.01-.46-.04-.68-.03-.2-.08-.39-.16-.57-.09-.17-.19-.31-.33-.4-.15-.11-.34-.16-.57-.16s-.47,.07-.72,.2c-.26,.15-.53,.37-.78,.68-.27,.31-.54,.7-.79,1.2-.25,.5-.46,1.11-.67,1.81l-1.12-.24c.1-.48,.27-1.04,.52-1.69,.26-.65,.6-1.27,1.04-1.87,.44-.6,.96-1.11,1.58-1.51,.61-.43,1.31-.63,2.12-.63,.55,0,1.01,.09,1.39,.28,.39,.19,.69,.44,.92,.79,.23,.34,.39,.76,.49,1.25,.1,.48,.15,1.03,.15,1.61,0,.7-.06,1.46-.15,2.28-.12,.83-.26,1.7-.45,2.61h.12c.59-1.74,1.2-3.19,1.81-4.33,.62-1.13,1.25-2.04,1.9-2.71,.63-.66,1.28-1.13,1.94-1.39,.66-.27,1.33-.39,1.97-.39,.41,0,.79,.05,1.13,.17,.35,.12,.65,.28,.9,.48,.26,.2,.46,.45,.6,.74,.15,.28,.22,.6,.22,.97,0,.24-.04,.47-.13,.71-.09,.23-.21,.44-.37,.61-.15,.19-.35,.34-.57,.43-.23,.13-.5,.18-.78,.18-.51,0-.92-.14-1.27-.42-.33-.29-.54-.7-.6-1.25"/>
  <path class="cls-2" d="M176.82,250.28h-1.95l-16.53-23.62h-.08l-.66,17.56c-.04,.71-.06,1.39-.09,2.06-.02,.66-.09,1.32-.17,1.95l2.9-.15-.08,1.75h-7.41l.04-1.32c.62,0,1.12-.1,1.49-.33,.36-.21,.65-.49,.85-.8,.19-.31,.33-.66,.39-1.04,.06-.36,.11-.71,.11-1.02l1.09-22.2-2.71,.2,.08-1.79h4.8l16.27,23.13h.08l.85-18.62c.02-.59,.06-1.12,.1-1.61,.05-.48,.1-.92,.16-1.32l-2.89,.2,.07-1.79h7.45l-.08,1.32c-.77,.02-1.34,.16-1.73,.44-.38,.24-.66,.59-.84,1.03-.16,.43-.27,.95-.3,1.53-.03,.6-.06,1.26-.1,1.98l-1.12,22.46Z"/>
  <path class="cls-2" d="M196.28,231.12c-.4-.17-.87-.3-1.4-.37-.53-.08-1.11-.13-1.74-.13-1.22,0-2.28,.34-3.18,1.04-.9,.68-1.65,1.57-2.22,2.72-.6,1.11-1.03,2.4-1.32,3.83-.29,1.42-.44,2.87-.44,4.36,0,.86,.04,1.65,.13,2.39,.08,.73,.24,1.35,.44,1.87,.21,.54,.48,.94,.81,1.24,.33,.3,.75,.45,1.24,.45,.62,0,1.24-.27,1.86-.8,.62-.53,1.21-1.23,1.77-2.12,.56-.88,1.09-1.91,1.57-3.07,.5-1.17,.92-2.4,1.28-3.7,.36-1.29,.65-2.59,.86-3.92,.21-1.34,.33-2.61,.33-3.8m3.54-1.27c-.23,1.66-.44,3.32-.65,4.99-.22,1.65-.4,3.22-.58,4.66-.17,1.46-.31,2.75-.41,3.9-.11,1.15-.16,2.01-.16,2.61,0,.28,0,.53,.02,.79,.02,.27,.06,.5,.15,.72,.07,.21,.19,.38,.34,.51,.15,.12,.36,.19,.64,.19,.22,0,.46-.07,.71-.2,.26-.13,.53-.36,.79-.67,.26-.32,.52-.71,.77-1.21,.26-.5,.48-1.09,.67-1.79l1.15,.23c-.1,.47-.27,1.04-.53,1.7-.25,.65-.6,1.27-1.03,1.87-.43,.6-.96,1.1-1.58,1.52-.62,.41-1.33,.62-2.14,.62-.53,0-.99-.09-1.38-.28-.38-.16-.7-.41-.93-.73-.23-.3-.4-.68-.51-1.14-.11-.45-.16-.94-.16-1.5,0-.77,.07-1.6,.21-2.51,.14-.91,.31-1.87,.53-2.9h-.13c-.42,1.34-.85,2.47-1.31,3.45-.46,.95-.92,1.77-1.38,2.43-.46,.68-.92,1.21-1.39,1.65-.46,.39-.93,.73-1.37,.95-.44,.23-.86,.38-1.28,.47-.42,.08-.81,.12-1.18,.12-.72,0-1.39-.12-2.01-.39-.63-.26-1.18-.66-1.63-1.22-.46-.56-.82-1.29-1.09-2.18-.26-.89-.39-1.98-.39-3.25,0-1.9,.24-3.7,.73-5.39,.49-1.7,1.23-3.2,2.21-4.49,.98-1.28,2.22-2.3,3.68-3.06,1.47-.76,3.2-1.13,5.17-1.13,.82,0,1.72,.06,2.67,.18,.95,.12,1.88,.29,2.76,.51"/>
  <path class="cls-2" d="M204.27,229.62c1.66,0,2.99-.49,3.96-1.47,.98-.99,1.73-2.4,2.26-4.22h1.54l-.73,5.7h6.44l-.12,1.5-6.47,.1c-.11,1.12-.25,2.3-.39,3.52-.13,1.21-.26,2.39-.37,3.57-.12,1.17-.21,2.32-.29,3.41-.09,1.09-.12,2.1-.12,2.99,0,.41,.01,.81,.05,1.22,.03,.42,.11,.8,.23,1.14,.13,.34,.32,.62,.56,.84,.24,.21,.61,.32,1.04,.32,.21,0,.45-.04,.72-.07,.27-.06,.58-.19,.92-.38,.34-.2,.69-.48,1.06-.86,.37-.38,.75-.88,1.12-1.54l1.04,.69c-.39,.71-.79,1.32-1.2,1.83-.43,.52-.87,.96-1.34,1.31-.46,.36-.97,.62-1.5,.8-.54,.18-1.14,.27-1.78,.27-.79,0-1.45-.12-1.99-.39-.54-.26-.97-.6-1.29-1.04-.32-.44-.55-.95-.7-1.53-.14-.59-.22-1.19-.22-1.82,0-.76,.03-1.65,.08-2.71,.04-1.02,.1-2.16,.19-3.38,.08-1.23,.2-2.54,.32-3.9,.13-1.37,.29-2.8,.46-4.26l-3.59,.05,.11-1.69Z"/>
  <path class="cls-2" d="M234.88,231.77c0-.41-.01-.79-.03-1.13-.02-.34-.03-.68-.06-1.01h3.4c.03,.27,.05,.47,.05,.58,0,.38-.03,.79-.04,1.2-.03,.43-.06,.96-.12,1.59-.06,.64-.15,1.44-.24,2.37-.11,.95-.25,2.14-.41,3.56-.12,1.05-.23,1.95-.31,2.67-.1,.71-.15,1.32-.21,1.82-.05,.49-.09,.89-.13,1.19-.04,.31-.08,.56-.1,.76,0,.2,0,.39-.02,.54v.55c0,.47,.08,.9,.23,1.24,.14,.35,.43,.52,.85,.52,.21,0,.44-.06,.72-.19,.26-.14,.53-.37,.8-.67,.27-.31,.53-.72,.78-1.21,.25-.5,.48-1.11,.68-1.81l1.12,.23c-.09,.48-.26,1.04-.52,1.7-.27,.64-.6,1.27-1.03,1.87-.43,.6-.95,1.11-1.57,1.51-.61,.42-1.31,.63-2.13,.63-.55,0-1.03-.09-1.4-.27-.39-.17-.71-.42-.98-.74-.26-.3-.44-.69-.55-1.13-.12-.45-.18-.95-.18-1.51,0-.76,.07-1.6,.22-2.51,.13-.91,.3-1.87,.5-2.9h-.11c-.69,1.84-1.34,3.36-1.97,4.51-.64,1.19-1.27,2.11-1.88,2.77-.62,.67-1.24,1.13-1.86,1.38-.61,.27-1.25,.4-1.9,.4-.82,0-1.5-.14-2.07-.42-.56-.28-1.02-.68-1.37-1.16-.34-.49-.6-1.04-.75-1.69-.17-.64-.25-1.29-.25-1.99,0-1.12,.07-2.26,.2-3.42,.13-1.18,.28-2.29,.45-3.35,.15-1.06,.31-2.05,.43-2.94,.12-.88,.2-1.62,.2-2.21,0-.24-.01-.49-.03-.7-.04-.24-.08-.44-.15-.62-.09-.17-.2-.29-.35-.4-.14-.11-.32-.17-.56-.17s-.46,.07-.71,.2c-.25,.15-.5,.37-.75,.68-.25,.31-.49,.7-.73,1.2-.23,.5-.46,1.11-.65,1.81l-1.13-.24c.09-.48,.26-1.04,.49-1.69,.25-.65,.58-1.27,1-1.87,.42-.6,.92-1.11,1.51-1.51,.6-.43,1.32-.63,2.12-.63,1.09,0,1.89,.34,2.45,1,.55,.68,.83,1.65,.83,2.92,0,.53-.03,1.11-.1,1.78-.07,.68-.14,1.39-.25,2.14-.1,.77-.2,1.54-.32,2.32-.11,.81-.2,1.59-.3,2.38-.1,.77-.19,1.51-.26,2.22-.06,.7-.09,1.34-.09,1.9,0,.23,.01,.5,.06,.79,.04,.29,.14,.55,.29,.82,.13,.27,.33,.48,.58,.66,.24,.17,.56,.28,.97,.28,.62,0,1.23-.27,1.85-.78,.63-.5,1.21-1.18,1.79-2.03,.56-.85,1.09-1.83,1.57-2.96,.48-1.11,.92-2.28,1.28-3.52,.37-1.23,.65-2.48,.86-3.73,.21-1.27,.31-2.46,.31-3.6"/>
  <path class="cls-2" d="M256.75,231.77c-.08-.01-.15-.05-.23-.05h-.21c-.61,0-1.2,.27-1.76,.79-.59,.53-1.12,1.2-1.66,2.08-.5,.85-.98,1.84-1.42,2.98-.44,1.13-.82,2.28-1.12,3.5-.3,1.22-.56,2.43-.73,3.65-.18,1.21-.27,2.34-.27,3.39v.51c0,.14,0,.27,0,.4,0,.13,.03,.24,.04,.38,0,.13,.01,.27,.03,.45h-3.35c-.02-.3-.04-.49-.04-.6v-1.16c.01-.43,.04-.97,.08-1.6,.03-.66,.09-1.44,.19-2.41,.09-.94,.2-2.13,.36-3.55,.12-1.04,.22-1.94,.29-2.66,.08-.73,.15-1.33,.21-1.82,.06-.48,.1-.88,.15-1.17,.04-.3,.08-.55,.09-.75,.01-.2,.03-.39,.04-.55v-.54c0-.24-.02-.46-.03-.68-.03-.2-.08-.39-.16-.57-.07-.17-.19-.31-.34-.4-.14-.11-.33-.16-.58-.16-.22,0-.46,.07-.71,.2-.25,.15-.53,.37-.79,.68-.26,.31-.54,.7-.78,1.2-.25,.5-.48,1.11-.67,1.81l-1.13-.24c.11-.48,.28-1.04,.53-1.69,.26-.65,.6-1.27,1.04-1.87,.43-.6,.95-1.11,1.56-1.51,.62-.43,1.32-.63,2.13-.63,.55,0,1,.09,1.39,.28,.38,.19,.69,.44,.92,.79,.24,.34,.39,.76,.5,1.25,.08,.48,.14,1.03,.14,1.61,0,.7-.06,1.46-.16,2.28-.11,.83-.24,1.7-.44,2.61h.13c.58-1.74,1.19-3.19,1.8-4.33,.62-1.13,1.25-2.04,1.89-2.71,.65-.66,1.28-1.13,1.94-1.39,.66-.27,1.32-.39,1.99-.39,.41,0,.78,.05,1.12,.17,.34,.12,.65,.28,.9,.48,.26,.2,.46,.45,.6,.74,.15,.28,.22,.6,.22,.97,0,.24-.05,.47-.13,.71-.09,.23-.21,.44-.37,.61-.16,.19-.35,.34-.57,.43-.24,.13-.5,.18-.78,.18-.51,0-.94-.14-1.26-.42-.34-.29-.55-.7-.62-1.25"/>
  <path class="cls-2" d="M270.83,230.55c-.94,0-1.76,.23-2.43,.75-.68,.48-1.23,1.13-1.7,1.93-.45,.81-.81,1.74-1.05,2.79-.25,1.03-.42,2.09-.5,3.16,1.07-.14,2.12-.36,3.13-.66,1.02-.3,1.93-.68,2.74-1.16,.79-.47,1.45-1.02,1.93-1.64,.51-.62,.75-1.32,.75-2.1,0-.44-.06-.84-.18-1.21-.13-.37-.3-.7-.53-.98-.25-.27-.54-.5-.9-.65-.36-.16-.79-.23-1.26-.23m6.21,3.27c0,.76-.19,1.43-.54,2.03-.36,.6-.84,1.14-1.45,1.61-.61,.47-1.29,.89-2.11,1.25-.78,.34-1.63,.65-2.51,.92-.88,.27-1.79,.49-2.69,.64-.93,.18-1.8,.31-2.64,.39,0,2.54,.39,4.43,1.13,5.7,.73,1.25,1.91,1.88,3.5,1.88,.58,0,1.18-.09,1.76-.28,.61-.2,1.19-.48,1.76-.88,.58-.4,1.13-.9,1.65-1.5,.52-.62,1.01-1.34,1.46-2.2l1.32,.75c-1.14,2.11-2.41,3.68-3.8,4.66-1.4,.99-3.02,1.49-4.85,1.49-1.29,0-2.4-.2-3.32-.63-.95-.42-1.72-1.01-2.34-1.77-.62-.77-1.09-1.69-1.38-2.75-.29-1.07-.44-2.28-.44-3.59,0-1.04,.09-2.06,.27-3.1,.17-1.01,.44-1.98,.8-2.89,.37-.92,.82-1.77,1.35-2.56,.54-.77,1.18-1.46,1.9-2.03,.74-.55,1.55-.99,2.48-1.33,.91-.32,1.92-.48,3.03-.48,.71,0,1.4,.09,2.08,.24,.68,.16,1.27,.43,1.81,.79,.51,.37,.94,.84,1.26,1.44,.33,.59,.5,1.32,.5,2.18"/>
<script xmlns="" id="bw-fido2-page-script"/></svg>